<svg width="24" height="24" viewBox="0 0 24 24" fill="none" xmlns="http://www.w3.org/2000/svg">
<path d="M2 14C2.94857 14.6416 4.37371 15.0164 6 14.9994C7.62629 15.0164 9.05143 14.6416 10 14C10.9486 13.3584 12.3737 12.9836 14 13.0006C15.6263 12.9836 17.0514 13.3584 18 14" stroke="#667080" stroke-width="2" stroke-linecap="round" stroke-linejoin="round"/>
<path d="M8 2C7.36735 2.22717 6.85475 2.52797 6.50648 2.87642C6.15821 3.22488 5.98474 3.6105 6.00105 4C5.98474 4.3895 6.15821 4.77512 6.50648 5.12358C6.85475 5.47203 7.36735 5.77283 8 6" stroke="#667080" stroke-width="2" stroke-linecap="round" stroke-linejoin="round"/>
<path d="M12 2C11.6837 2.22717 11.4274 2.52797 11.2532 2.87642C11.0791 3.22488 10.9924 3.6105 11.0005 4C10.9924 4.3895 11.0791 4.77512 11.2532 5.12358C11.4274 5.47203 11.6837 5.77283 12 6" stroke="#667080" stroke-width="2" stroke-linecap="round" stroke-linejoin="round"/>
<path d="M2 10H18V15.4545C18 17.1905 17.2776 18.8554 15.9916 20.0829C14.7056 21.3104 12.9615 22 11.1429 22H8.85714C7.03852 22 5.29437 21.3104 4.00841 20.0829C2.72245 18.8554 2 17.1905 2 15.4545V10Z" stroke="#667080" stroke-width="2" stroke-linecap="round" stroke-linejoin="round"/>
<path d="M18 17.6808C18.5252 17.92 19.1016 18.0276 19.6785 17.994C20.2554 17.9604 20.8152 17.7868 21.3086 17.4883C21.802 17.1899 22.214 16.7757 22.5083 16.2823C22.8026 15.7889 22.9702 15.2313 22.9964 14.6586C23.0226 14.0859 22.9065 13.5156 22.6585 12.9977C22.4104 12.4799 22.038 12.0305 21.5738 11.6889C21.1097 11.3474 20.568 11.1242 19.9966 11.0389C19.4251 10.9537 18.8412 11.009 18.2964 11.2" stroke="#667080" stroke-width="2" stroke-linecap="round" stroke-linejoin="round"/>
</svg>
