<svg width="24" height="24" viewBox="0 0 24 24" fill="none" xmlns="http://www.w3.org/2000/svg">
<path d="M23 16.0701C23 15.5939 22.8115 15.1475 22.4742 14.8101L21.3928 13.7287C21.3928 13.7287 21.3233 13.6593 21.2936 13.6295L21.6607 13.2625C21.998 12.9251 22.1865 12.4787 22.1865 12.0025C22.1865 11.5263 21.998 11.0798 21.6607 10.7425L21.3928 10.4746C21.0555 10.1373 20.609 9.94882 20.1328 9.94882C19.6566 9.94882 19.2101 10.1373 18.8728 10.4746L16.8787 12.4688L11.5312 7.12131L13.5254 5.12717C13.8627 4.78985 14.0512 4.3434 14.0512 3.86719C14.0512 3.39098 13.8627 2.94453 13.5254 2.60722L13.2575 2.33935C12.9202 2.00203 12.4737 1.81353 11.9975 1.81353C11.5213 1.81353 11.0749 2.00203 10.7375 2.33935L10.3705 2.70643C10.3705 2.70643 10.3109 2.63698 10.2713 2.60722L9.18985 1.52582C8.85254 1.1885 8.40609 1 7.92988 1C7.45366 1 7.00721 1.1885 6.6699 1.52582L5.48929 2.70643L5.12221 2.33935C4.78489 2.00203 4.33844 1.81353 3.86223 1.81353C3.38602 1.81353 2.93957 2.00203 2.60225 2.33935L2.33439 2.60722C1.99707 2.94453 1.80857 3.39098 1.80857 3.86719C1.80857 4.3434 1.99707 4.78985 2.33439 5.12717L2.70147 5.49425L1.52086 6.67486C0.826381 7.36933 0.826381 8.50034 1.52086 9.19481L2.60225 10.2762C2.60225 10.2762 2.6717 10.3457 2.70147 10.3754L2.33439 10.7425C1.63991 11.437 1.63991 12.568 2.33439 13.2625L2.60225 13.5303C2.93957 13.8676 3.38602 14.0561 3.86223 14.0561C4.33844 14.0561 4.78489 13.8676 5.12221 13.5303L7.11635 11.5362L12.4638 16.8837L10.4697 18.8778C9.7752 19.5723 9.7752 20.7033 10.4697 21.3977L10.7375 21.6656C11.0749 22.0029 11.5213 22.1914 11.9975 22.1914C12.4737 22.1914 12.9202 22.0029 13.2575 21.6656L13.6246 21.2985C13.6246 21.2985 13.6841 21.368 13.7238 21.3977L14.8052 22.4791C15.1425 22.8165 15.589 23.005 16.0652 23.005C16.5414 23.005 16.9878 22.8165 17.3251 22.4791L18.5057 21.2985L18.8728 21.6656C19.2101 22.0029 19.6566 22.1914 20.1328 22.1914C20.609 22.1914 21.0555 22.0029 21.3928 21.6656L21.6607 21.3977C22.3551 20.7033 22.3551 19.5723 21.6607 18.8778L21.2936 18.5107L22.4742 17.3301C22.8115 16.9928 23 16.5463 23 16.0701ZM20.0038 20.485L19.6368 20.1179L20.0931 19.6616L20.4602 20.0286C20.4602 20.0286 20.4999 20.108 20.4999 20.1278C20.4999 20.1576 20.48 20.1973 20.4602 20.2171L20.1923 20.485C20.1923 20.485 20.113 20.5247 20.0931 20.5247C20.0634 20.5247 20.0237 20.5048 20.0038 20.485ZM15.9461 21.2985L14.8647 20.2171C14.8647 20.2171 14.825 20.1378 14.825 20.1179C14.825 20.0882 14.8449 20.0485 14.8647 20.0286L20.0138 14.8895C20.0138 14.8895 20.0931 14.8498 20.113 14.8498C20.1427 14.8498 20.1824 14.8697 20.2023 14.8895L21.2837 15.9709C21.3432 16.0304 21.3432 16.1098 21.2837 16.1693L19.5276 17.9254L17.9006 19.5524L16.1346 21.3184C16.1346 21.3184 16.0949 21.3382 16.0751 21.3481H16.0453C15.9957 21.3481 15.966 21.3184 15.9461 21.3085V21.2985ZM11.9678 20.5148H11.9281C11.9281 20.5148 11.8785 20.4949 11.8785 20.485L11.6106 20.2171C11.6106 20.2171 11.5709 20.1576 11.5709 20.1179C11.5709 20.0782 11.5908 20.0485 11.6106 20.0187L14.1802 17.4492L17.4343 14.195L20.0138 11.6156C20.0138 11.6156 20.0931 11.5759 20.113 11.5759C20.1427 11.5759 20.1824 11.5957 20.2023 11.6156L20.4701 11.8834C20.4701 11.8834 20.5098 11.9628 20.5098 11.9826C20.5098 12.0124 20.49 12.0521 20.4701 12.0719L12.067 20.4751C12.067 20.4751 11.9876 20.5148 11.9678 20.5148ZM10.3407 8.26223L15.6882 13.6097L13.6047 15.6931L8.25727 10.3457L10.3407 8.26223ZM9.09064 3.92672L3.92176 9.0956C3.92176 9.0956 3.86223 9.12537 3.83247 9.12537C3.78286 9.12537 3.7531 9.0956 3.74318 9.08568L2.66178 8.00428C2.66178 8.00428 2.6221 7.92491 2.6221 7.90507C2.6221 7.87531 2.64194 7.83563 2.66178 7.81578L4.42773 6.04983L6.05479 4.42277L7.82074 2.65682C7.82074 2.65682 7.90011 2.61714 7.91995 2.61714C7.94972 2.61714 7.9894 2.63698 8.00924 2.65682L9.09064 3.73822C9.09064 3.73822 9.13033 3.80767 9.13033 3.83743C9.13033 3.85727 9.13033 3.89696 9.09064 3.9168V3.92672ZM3.43563 3.84735C3.43563 3.84735 3.45547 3.7779 3.47531 3.75806L3.74318 3.49019C3.74318 3.49019 3.82255 3.45051 3.84239 3.45051C3.87215 3.45051 3.91184 3.47035 3.93168 3.49019L4.29876 3.85727L3.84239 4.31364L3.47531 3.94656C3.47531 3.94656 3.43563 3.86719 3.43563 3.84735ZM3.74318 12.3398L3.47531 12.0719C3.47531 12.0719 3.43563 11.9926 3.43563 11.9727C3.43563 11.943 3.45547 11.9033 3.47531 11.8834L5.08252 10.2762L10.2415 5.11725L11.8685 3.49019C11.8685 3.49019 11.9479 3.45051 11.9678 3.45051C11.9975 3.45051 12.0372 3.47035 12.057 3.49019L12.3249 3.75806C12.3249 3.75806 12.3646 3.83743 12.3646 3.85727C12.3646 3.88703 12.3448 3.92672 12.3249 3.94656L3.95152 12.3398C3.95152 12.3398 3.87215 12.3795 3.85231 12.3795C3.80271 12.3795 3.77294 12.3497 3.7531 12.3398H3.74318Z" fill="#667080"/>
</svg>
