<svg width="24" height="24" viewBox="0 0 24 24" fill="none" xmlns="http://www.w3.org/2000/svg">
<path d="M5 9.78351C5 8.51022 5.31657 7.28916 5.89143 6.20698M7.93944 3.75374C9.3984 2.59532 11.231 1.97456 13.1146 2.0008C14.9981 2.02704 16.8117 2.69859 18.2359 3.89717C19.6601 5.09575 20.6036 6.74447 20.9002 8.55295C21.1968 10.3614 20.8274 12.2136 19.8572 13.7834C19.6306 14.077 19.3892 14.3596 19.1338 14.63M16.7966 16.8077C16.1526 17.5644 15.6421 18.4197 15.2858 19.3387C14.9311 19.9903 14.4327 20.5575 13.8261 20.9998C13.2195 21.4422 12.5198 21.7486 11.7772 21.8973C11.0345 22.0459 10.2672 22.0331 9.53022 21.8597C8.79325 21.6863 8.10485 21.3566 7.5143 20.8942" stroke="#667080" stroke-width="2" stroke-linecap="round" stroke-linejoin="round"/>
<path d="M11 6.4917C11.6275 6.1025 12.3682 5.93686 13.1017 6.02167C13.8352 6.10648 14.5185 6.43676 15.0407 6.95889C15.5629 7.48102 15.8933 8.16434 15.9782 8.89793C16.0632 9.63152 15.8978 10.3723 15.5088 11" stroke="#667080" stroke-width="2" stroke-linecap="round" stroke-linejoin="round"/>
<path d="M2 2L22 22" stroke="#667080" stroke-width="2" stroke-linecap="round" stroke-linejoin="round"/>
</svg>
