<svg width="24" height="24" viewBox="0 0 24 24" fill="none" xmlns="http://www.w3.org/2000/svg">
<g clip-path="url(#clip0_107_3241)">
<path d="M22.6501 14.39L12.0001 22.13L1.35014 14.39C1.20737 14.285 1.10146 14.1375 1.04758 13.9687C0.993694 13.7999 0.994592 13.6183 1.05014 13.45L2.27014 9.67L4.71014 2.16C4.73381 2.09881 4.77148 2.04401 4.82014 2C4.89938 1.92762 5.00282 1.88749 5.11014 1.88749C5.21746 1.88749 5.32091 1.92762 5.40014 2C5.45153 2.04966 5.48939 2.11162 5.51014 2.18L7.95014 9.67H16.0501L18.4901 2.16C18.5138 2.09881 18.5515 2.04401 18.6001 2C18.6794 1.92762 18.7828 1.88749 18.8901 1.88749C18.9975 1.88749 19.1009 1.92762 19.1801 2C19.2315 2.04966 19.2694 2.11162 19.2901 2.18L21.7301 9.69L23.0001 13.45C23.0507 13.6235 23.0439 13.8086 22.9809 13.978C22.9178 14.1473 22.8018 14.2918 22.6501 14.39V14.39Z" stroke="#667080" stroke-width="2" stroke-linecap="round" stroke-linejoin="round"/>
</g>
<defs>
<clipPath id="clip0_107_3241">
<rect width="24" height="24" fill="white"/>
</clipPath>
</defs>
</svg>
