<svg width="24" height="24" viewBox="0 0 24 24" fill="none" xmlns="http://www.w3.org/2000/svg">
<path d="M11.8758 2.00889C12.0207 2.00889 12.1645 2.00889 12.3072 2.00889C10.8972 3.33523 9.99083 5.11983 9.74574 7.05247C9.50065 8.98511 9.9323 10.9436 10.9656 12.5875C11.999 14.2314 13.5687 15.4567 15.4019 16.0505C17.2351 16.6443 19.2159 16.5691 21 15.8378C20.3137 17.5094 19.1921 18.9611 17.7547 20.0381C16.3173 21.115 14.6181 21.7767 12.8383 21.9527C11.0585 22.1286 9.26497 21.8122 7.64893 21.0371C6.03288 20.2621 4.65498 19.0574 3.66219 17.5518C2.66941 16.0461 2.09898 14.2959 2.01176 12.4877C1.92454 10.6796 2.3238 8.88144 3.16695 7.28501C4.01009 5.68859 5.2655 4.3538 6.79926 3.42304C8.33302 2.49227 10.0876 2.00044 11.8758 2V2.00889Z" stroke="#667080" stroke-width="2" stroke-linecap="round" stroke-linejoin="round"/>
<path d="M17.5 3C17.5 3.66304 17.7634 4.29893 18.2322 4.76777C18.7011 5.23661 19.337 5.5 20 5.5C19.337 5.5 18.7011 5.76339 18.2322 6.23223C17.7634 6.70107 17.5 7.33696 17.5 8C17.5 7.33696 17.2366 6.70107 16.7678 6.23223C16.2989 5.76339 15.663 5.5 15 5.5C15.663 5.5 16.2989 5.23661 16.7678 4.76777C17.2366 4.29893 17.5 3.66304 17.5 3Z" stroke="#667080" stroke-width="2" stroke-linecap="round" stroke-linejoin="round"/>
<path d="M20 11H22M21 10V12" stroke="#667080" stroke-width="2" stroke-linecap="round" stroke-linejoin="round"/>
</svg>
