<svg width="24" height="24" viewBox="0 0 24 24" fill="none" xmlns="http://www.w3.org/2000/svg">
<path d="M12 14C13.1046 14 14 13.1046 14 12C14 10.8954 13.1046 10 12 10C10.8954 10 10 10.8954 10 12C10 13.1046 10.8954 14 12 14Z" stroke="#667080" stroke-width="2" stroke-linecap="round" stroke-linejoin="round"/>
<path d="M16.2398 7.75999C16.7977 8.31723 17.2402 8.97896 17.5422 9.70735C17.8441 10.4357 17.9995 11.2165 17.9995 12.005C17.9995 12.7935 17.8441 13.5742 17.5422 14.3026C17.2402 15.031 16.7977 15.6928 16.2398 16.25M7.75982 16.24C7.20196 15.6828 6.75941 15.021 6.45746 14.2926C6.15551 13.5642 6.0001 12.7835 6.0001 11.995C6.0001 11.2065 6.15551 10.4257 6.45746 9.69735C6.75941 8.96896 7.20196 8.30723 7.75982 7.74999M19.0698 4.92999C20.9445 6.80527 21.9977 9.34835 21.9977 12C21.9977 14.6516 20.9445 17.1947 19.0698 19.07M4.92982 19.07C3.05511 17.1947 2.00195 14.6516 2.00195 12C2.00195 9.34835 3.05511 6.80527 4.92982 4.92999" stroke="#667080" stroke-width="2" stroke-linecap="round" stroke-linejoin="round"/>
</svg>
