<svg width="24" height="24" viewBox="0 0 24 24" fill="none" xmlns="http://www.w3.org/2000/svg">
<path d="M12 2C14.5991 4.29619 17.9913 5.49174 21.458 5.33333C21.9627 7.04779 22.1171 8.84607 21.9121 10.6213C21.7071 12.3966 21.1468 14.1125 20.2645 15.6673C19.3822 17.222 18.196 18.5838 16.7762 19.6716C15.3565 20.7595 13.7322 21.5513 12 22C10.2678 21.5513 8.64351 20.7595 7.22378 19.6716C5.80405 18.5838 4.6178 17.222 3.73552 15.6673C2.85324 14.1125 2.29294 12.3966 2.08792 10.6213C1.88289 8.84607 2.03733 7.04779 2.54204 5.33333C6.00869 5.49174 9.40092 4.29619 12 2Z" stroke="#667080" stroke-width="2" stroke-linecap="round" stroke-linejoin="round"/>
<path d="M12 12C12.5523 12 13 11.5523 13 11C13 10.4477 12.5523 10 12 10C11.4477 10 11 10.4477 11 11C11 11.5523 11.4477 12 12 12Z" stroke="#667080" stroke-width="2" stroke-linecap="round" stroke-linejoin="round"/>
<path d="M12 12V15" stroke="#667080" stroke-width="2" stroke-linecap="round" stroke-linejoin="round"/>
</svg>
